<svg width="24" height="24" viewBox="0 0 24 24" fill="none" xmlns="http://www.w3.org/2000/svg">
<mask id="mask0_2095_2" style="mask-type:luminance" maskUnits="userSpaceOnUse" x="1" y="1" width="22" height="22">
<path d="M22.2862 1.71387H1.71484V22.2853H22.2862V1.71387Z" fill="white"/>
</mask>
<g mask="url(#mask0_2095_2)">
<path d="M21.4634 3.5653H17.1434V1.91959C17.1434 1.80644 17.0508 1.71387 16.9377 1.71387H15.4977C15.3846 1.71387 15.292 1.80644 15.292 1.91959V3.5653H8.70913V1.91959C8.70913 1.80644 8.61656 1.71387 8.50342 1.71387H7.06342C6.95027 1.71387 6.8577 1.80644 6.8577 1.91959V3.5653H2.5377C2.08256 3.5653 1.71484 3.93302 1.71484 4.38816V21.4624C1.71484 21.9175 2.08256 22.2853 2.5377 22.2853H21.4634C21.9186 22.2853 22.2863 21.9175 22.2863 21.4624V4.38816C22.2863 3.93302 21.9186 3.5653 21.4634 3.5653ZM20.4348 20.4338H3.56627V10.6624H20.4348V20.4338ZM3.56627 8.91387V5.41673H6.8577V6.65102C6.8577 6.76416 6.95027 6.85673 7.06342 6.85673H8.50342C8.61656 6.85673 8.70913 6.76416 8.70913 6.65102V5.41673H15.292V6.65102C15.292 6.76416 15.3846 6.85673 15.4977 6.85673H16.9377C17.0508 6.85673 17.1434 6.76416 17.1434 6.65102V5.41673H20.4348V8.91387H3.56627Z" fill="#016F33"/>
</g>
</svg>
