<svg width="12" height="12" viewBox="0 0 12 12" fill="none" xmlns="http://www.w3.org/2000/svg">
<g clip-path="url(#clip0_5185_3271)">
<path d="M5.99979 0.857178C6.17029 0.857178 6.3338 0.924907 6.45436 1.04547C6.57492 1.16603 6.64265 1.32954 6.64265 1.50003V5.35718H10.4998C10.6703 5.35718 10.8338 5.42491 10.9544 5.54547C11.0749 5.66603 11.1426 5.82954 11.1426 6.00003C11.1426 6.17053 11.0749 6.33404 10.9544 6.4546C10.8338 6.57516 10.6703 6.64289 10.4998 6.64289H6.64265V10.5C6.64265 10.6705 6.57492 10.834 6.45436 10.9546C6.3338 11.0752 6.17029 11.1429 5.99979 11.1429C5.82929 11.1429 5.66578 11.0752 5.54522 10.9546C5.42466 10.834 5.35693 10.6705 5.35693 10.5V6.64289H1.49979C1.32929 6.64289 1.16578 6.57516 1.04522 6.4546C0.924663 6.33404 0.856934 6.17053 0.856934 6.00003C0.856934 5.82954 0.924663 5.66603 1.04522 5.54547C1.16578 5.42491 1.32929 5.35718 1.49979 5.35718H5.35693V1.50003C5.35693 1.32954 5.42466 1.16603 5.54522 1.04547C5.66578 0.924907 5.82929 0.857178 5.99979 0.857178V0.857178Z" fill="#D66E0F"/>
</g>
<defs>
<clipPath id="clip0_5185_3271">
<rect width="10.2857" height="10.2857" fill="white" transform="translate(0.856934 0.857178)"/>
</clipPath>
</defs>
</svg>
