<svg width="23" height="32" viewBox="0 0 23 32" fill="none" xmlns="http://www.w3.org/2000/svg">
<path d="M9 9.25H1.5V22.75H9L17.5 30.25V1.75L9 9.25Z" fill="#4CA15D"/>
<path d="M1.5 9.25V8.25H0.5V9.25H1.5ZM9 9.25V10.25H9.3781L9.66162 9.99984L9 9.25ZM17.5 1.75H18.5C18.5 1.35687 18.2697 1.00022 17.9113 0.838512C17.553 0.676808 17.1332 0.74006 16.8384 1.00016L17.5 1.75ZM17.5 30.25L16.8384 30.9998C17.1332 31.2599 17.553 31.3232 17.9113 31.1615C18.2697 30.9998 18.5 30.6431 18.5 30.25H17.5ZM9 22.75L9.66162 22.0002L9.3781 21.75H9V22.75ZM1.5 22.75H0.5V23.75H1.5V22.75ZM1.5 10.25H9V8.25H1.5V10.25ZM9.66162 9.99984L18.1616 2.49984L16.8384 1.00016L8.33838 8.50016L9.66162 9.99984ZM16.5 1.75V30.25H18.5V1.75H16.5ZM18.1616 29.5002L9.66162 22.0002L8.33838 23.4998L16.8384 30.9998L18.1616 29.5002ZM9 21.75H1.5V23.75H9V21.75ZM2.5 22.75V9.25H0.5V22.75H2.5Z" fill="#4CA15D"/>
<path d="M8.5 9.75V22.75" stroke="#4CA15D" stroke-width="2"/>
<path d="M21.5 15.75C21.5 11.75 18.8333 10.75 17.5 10.75V20.75C18.8333 20.75 21.5 19.75 21.5 15.75Z" fill="#4CA15D" stroke="#4CA15D" stroke-width="2"/>
<path d="M9 7.25V24.75M19 7.25V24.75" stroke="white"/>
</svg>
