<svg width="176" height="43" viewBox="0 0 176 43" fill="none" xmlns="http://www.w3.org/2000/svg">
<path d="M32.1382 17.659L23.8614 18.1402C20.0958 18.3428 17.9334 20.5844 17.747 24.4216L17.2748 32.856C17.2375 33.6918 18.0204 33.9704 18.6418 33.2992L32.5731 19.052C33.207 18.3808 32.9708 17.621 32.1382 17.659Z" fill="#4CA15D"/>
<path d="M18.6418 0.385012C18.008 -0.298854 17.2251 -0.0202416 17.2748 0.828259L17.747 9.2626C17.9459 13.0998 20.0958 15.3414 23.8614 15.544L32.1382 16.0253C32.9584 16.0633 33.1945 15.3034 32.5731 14.6322L18.6418 0.385012Z" fill="#4CA15D"/>
<path d="M15.1871 24.409C14.9882 20.5718 12.8383 18.3302 9.0727 18.1276L0.795925 17.6463C-0.0242965 17.6083 -0.260419 18.4062 0.360961 19.0394L14.2923 33.2866C14.9261 33.9705 15.709 33.6919 15.6593 32.8433L15.1871 24.409Z" fill="#4CA15D"/>
<path d="M14.2922 0.385009L0.360833 14.6196C-0.272974 15.2654 -0.0368515 16.0633 0.795797 16.0126L9.07258 15.5314C12.8381 15.3287 15.0005 13.0872 15.187 9.24994L15.6592 0.815591C15.7089 -0.0202452 14.9135 -0.298857 14.2922 0.385009Z" fill="#4CA15D"/>
<path d="M138.531 5.46338H134.815L130.776 9.98449H134.02L138.531 5.46338Z" fill="#0A2F2A"/>
<path d="M155.271 15.1008C154.003 12.9986 151.953 11.9601 149.653 11.9601C145.577 11.9601 142.097 15.4681 142.097 20.2678C142.097 25.3841 145.378 28.5375 149.653 28.5375C152.151 28.5375 154.003 27.2838 155.271 25.5488V28.2083H158.204V5.46338H155.271V15.1008ZM155.271 22.3574C154.525 24.409 152.698 25.9034 150.25 25.9034C147.404 25.9034 145.105 23.7631 145.105 20.2551C145.105 16.5445 147.317 14.5689 150.25 14.5689C152.698 14.5689 154.562 16.2279 155.271 18.2795V22.3574Z" fill="#0A2F2A"/>
<path d="M176 19.5333C176 15.1768 173.03 11.9601 168.407 11.9601C164.057 11.9601 160.615 15.5061 160.615 20.2678C160.615 25.3461 163.858 28.5375 168.605 28.5375C171.688 28.5375 174.26 27.2078 175.453 25.0675L173.241 23.5351C172.371 24.9409 170.668 25.916 168.692 25.916C166.07 25.916 163.871 24.2063 163.585 21.0023H175.888C175.95 20.5084 176 20.0145 176 19.5333ZM163.721 18.4821C164.256 16.1773 165.871 14.5689 168.394 14.5689C170.892 14.5689 172.781 16.1013 172.98 18.4821H163.721Z" fill="#0A2F2A"/>
<path d="M136.878 21.6736C136.878 24.7383 135.25 25.9034 132.889 25.9034C130.639 25.9034 128.899 24.6116 128.899 21.6736V12.2767H125.966V21.4329C125.966 26.3087 128.7 28.5249 132.889 28.5249C136.928 28.5249 139.811 26.144 139.811 21.4329V12.2767H136.878V21.6736Z" fill="#0A2F2A"/>
<path d="M99.6945 18.8114C97.4451 18.2035 96.2148 17.8489 96.2148 16.5192C96.2148 15.3541 97.2836 14.5816 99.0607 14.5816C100.801 14.5816 102.466 15.2274 103.609 16.2786L104.951 13.9357C103.609 12.6439 101.347 11.9601 99.2099 11.9601C95.6928 11.9601 93.2819 13.8977 93.2819 16.7978C93.2819 19.9765 96.1278 20.863 98.6258 21.4709C100.564 21.9521 102.304 22.522 102.304 23.8897C102.304 25.1435 101.198 25.9034 99.185 25.9034C97.2836 25.9034 95.4319 25.0928 94.0773 23.9277L92.7227 26.2706C94.2637 27.6383 96.8362 28.5248 99.3341 28.5248C102.888 28.5248 105.262 26.5492 105.262 23.6871C105.262 20.6604 102.814 19.6599 99.6945 18.8114Z" fill="#0A2F2A"/>
<path d="M120.026 15.1008C118.758 12.9985 116.708 11.9601 114.409 11.9601C110.333 11.9601 106.853 15.4681 106.853 20.2678C106.853 25.3841 110.134 28.5375 114.409 28.5375C116.907 28.5375 118.758 27.2837 120.026 25.5488V28.2082H122.959V12.2767H120.026V15.1008ZM120.026 22.3574C119.28 24.409 117.454 25.9033 115.005 25.9033C112.159 25.9033 109.86 23.7631 109.86 20.2551C109.86 16.5445 112.072 14.5689 115.005 14.5689C117.454 14.5689 119.318 16.2279 120.026 18.2795V22.3574Z" fill="#0A2F2A"/>
<path d="M56.3719 19.7486V18.9887C59.6155 18.5961 61.7282 16.076 61.7282 12.8466C61.7282 7.66695 57.7017 5.46338 52.6064 5.46338H38.2898V28.1956H43.6461V21.2176H50.6925C54.9552 21.2176 55.7754 24.8902 56.6826 28.1956H62.6727C61.5418 23.8518 60.5973 20.3438 56.3719 19.7486ZM52.2584 16.6332H43.6461V10.0478H52.2584C54.4457 10.0478 56.2477 11.0103 56.2477 13.3152C56.2601 15.4428 54.6072 16.6332 52.2584 16.6332Z" fill="#0A2F2A"/>
<path d="M76.2437 5.46338H65.4814V28.1956H76.2437C83.6381 28.1956 89.5164 24.409 89.5164 16.8358C89.5164 9.81986 83.9488 5.46338 76.2437 5.46338ZM76.2437 23.6112H70.8377V10.0478H76.2437C80.817 10.0478 84.0358 12.682 84.0358 16.8232C84.0358 21.4203 80.5064 23.6112 76.2437 23.6112Z" fill="#0A2F2A"/>
<path d="M38.2898 36.3893H39.1722L39.2094 36.9845C39.371 36.7692 39.5698 36.6046 39.7935 36.4906C40.0297 36.364 40.2906 36.3007 40.5889 36.3007C40.9617 36.3007 41.3097 36.402 41.6204 36.5919C41.9311 36.7946 42.1921 37.0732 42.3785 37.4278C42.5649 37.795 42.6519 38.2003 42.6519 38.6689C42.6519 39.1248 42.5525 39.5427 42.366 39.91C42.1672 40.2772 41.9062 40.5685 41.5831 40.7711C41.26 40.9737 40.912 41.0751 40.5392 41.0751C40.2782 41.0751 40.0297 41.0244 39.8184 40.9104C39.5947 40.7964 39.4207 40.6445 39.2716 40.4545V43H38.2898V36.3893ZM41.0611 40.0239C41.2476 39.8973 41.3967 39.7327 41.5085 39.5047C41.6204 39.2767 41.6701 39.0108 41.6701 38.6942C41.6701 38.3776 41.6204 38.1116 41.521 37.8837C41.4215 37.6557 41.2724 37.4911 41.086 37.3771C40.8996 37.2631 40.6883 37.1998 40.4398 37.1998C40.1912 37.1998 39.9675 37.2631 39.7687 37.3771C39.5698 37.4911 39.3958 37.6431 39.2591 37.833V39.568C39.3834 39.7706 39.545 39.9226 39.7438 40.0366C39.9427 40.1506 40.1664 40.2139 40.4273 40.2139C40.6635 40.2139 40.8747 40.1506 41.0611 40.0239Z" fill="#0A2F2A"/>
<path d="M44.4539 40.7965C44.1059 40.5938 43.8325 40.3152 43.6337 39.948C43.4348 39.5807 43.3354 39.1755 43.3354 38.7069C43.3354 38.2383 43.4348 37.8204 43.6337 37.4658C43.8325 37.0985 44.1059 36.8199 44.4539 36.6173C44.8018 36.4147 45.1871 36.3134 45.6096 36.3134C46.0322 36.3134 46.4174 36.4147 46.7654 36.6173C47.1134 36.8199 47.3868 37.0985 47.5856 37.4658C47.7845 37.8331 47.8839 38.2383 47.8839 38.7069C47.8839 39.1628 47.7845 39.5807 47.5856 39.948C47.3868 40.3152 47.1134 40.5938 46.7654 40.7965C46.4174 40.9991 46.0322 41.1004 45.6096 41.1004C45.1871 41.1004 44.8018 40.9991 44.4539 40.7965ZM46.2683 40.024C46.4671 39.91 46.6163 39.7327 46.7281 39.5174C46.84 39.2894 46.8897 39.0235 46.8897 38.7195C46.8897 38.4029 46.84 38.137 46.7281 37.909C46.6163 37.6811 46.4671 37.5038 46.2683 37.3898C46.0695 37.2758 45.8582 37.2125 45.6096 37.2125C45.3611 37.2125 45.1374 37.2758 44.951 37.3898C44.7521 37.5038 44.603 37.6811 44.4912 37.909C44.3793 38.137 44.3296 38.4029 44.3296 38.7195C44.3296 39.0362 44.3793 39.3021 44.4912 39.5174C44.603 39.7453 44.7521 39.91 44.951 40.0366C45.1498 40.1506 45.3611 40.2139 45.6096 40.2139C45.8582 40.2013 46.0695 40.1379 46.2683 40.024Z" fill="#0A2F2A"/>
<path d="M48.8408 36.3893H49.7232L49.7605 37.2885C49.9345 36.9845 50.1457 36.7566 50.4067 36.5666C50.6677 36.3893 50.9535 36.3007 51.2766 36.3007C51.4506 36.3007 51.5873 36.326 51.6867 36.3766V37.3645C51.5749 37.3265 51.4382 37.3138 51.2642 37.3138C50.9908 37.3138 50.7298 37.3898 50.4688 37.5417C50.2203 37.6937 49.9966 37.909 49.7978 38.2003V41.0117H48.816V36.3893H48.8408Z" fill="#0A2F2A"/>
<path d="M54.7688 40.8851C54.5327 40.7458 54.3463 40.5432 54.222 40.2899C54.0977 40.0366 54.0231 39.7073 54.0231 39.3274V36.3766H55.0049V39.2641C55.0049 39.5554 55.0795 39.7833 55.2162 39.9353C55.3529 40.0873 55.5393 40.1632 55.7879 40.1632C56.024 40.1632 56.2601 40.0872 56.4589 39.9479C56.6702 39.8086 56.8566 39.5933 57.0182 39.3147V36.3766H58V41.0244H57.1052L57.0679 40.2899C56.8939 40.5305 56.6826 40.7331 56.4341 40.8724C56.1855 41.0244 55.8997 41.0877 55.589 41.0877C55.2783 41.1004 55.0049 41.0244 54.7688 40.8851Z" fill="#0A2F2A"/>
<path d="M59.2054 36.3893H60.0878L60.125 37.2505C60.2866 36.9592 60.4979 36.7312 60.7464 36.5666C60.995 36.402 61.2808 36.3133 61.5915 36.3133C61.9022 36.3133 62.1756 36.3893 62.4117 36.5539C62.6478 36.7186 62.8218 36.9592 62.9461 37.2631C63.145 36.9592 63.3686 36.7312 63.6421 36.5539C63.903 36.3893 64.2013 36.3007 64.5244 36.3007C64.8227 36.3007 65.0837 36.3766 65.3198 36.516C65.5559 36.6679 65.7299 36.8705 65.8542 37.1492C65.9784 37.4278 66.0406 37.757 66.0406 38.1243V40.9991H65.0588V38.2509C65.0588 37.9217 64.9842 37.6557 64.8475 37.4784C64.7108 37.3011 64.512 37.2125 64.2634 37.2125C64.0397 37.2125 63.8285 37.2885 63.6296 37.4531C63.4308 37.6051 63.2692 37.833 63.1077 38.1243V40.9864H62.1259V38.2383C62.1259 37.909 62.0513 37.6431 61.9146 37.4658C61.7655 37.2885 61.5791 37.1998 61.3305 37.1998C61.0944 37.1998 60.8831 37.2758 60.6843 37.4404C60.4854 37.6051 60.3239 37.833 60.1623 38.137V40.9737H59.1805V36.3893H59.2054Z" fill="#0A2F2A"/>
<path d="M67.768 40.9357C67.5443 40.8344 67.3579 40.6698 67.2212 40.4545C67.0845 40.2392 67.0099 39.9986 67.0099 39.7073C67.0099 39.4034 67.0845 39.1501 67.2337 38.9348C67.3828 38.7195 67.594 38.5549 67.8799 38.4409C68.1533 38.3269 68.4764 38.2763 68.8244 38.2763C69.1599 38.2763 69.483 38.3396 69.7813 38.4789V38.1243C69.7813 37.833 69.6943 37.605 69.5079 37.4531C69.3339 37.3011 69.0605 37.2125 68.7001 37.2125C68.2154 37.2125 67.7556 37.3264 67.3206 37.5671V36.7185C67.768 36.4653 68.2527 36.3386 68.7747 36.3386C69.1848 36.3386 69.5452 36.4146 69.8434 36.5666C70.1417 36.7186 70.3654 36.9338 70.5145 37.1998C70.6637 37.4657 70.7507 37.7823 70.7507 38.1496V41.0497H69.8559L69.831 40.4418C69.6819 40.6571 69.483 40.8218 69.2593 40.9484C69.0356 41.0624 68.7747 41.1257 68.5013 41.1257C68.2403 41.1004 68.0042 41.037 67.768 40.9357ZM69.2966 40.1505C69.483 40.0492 69.6446 39.8973 69.7937 39.682V39.1121C69.5203 39.0108 69.2469 38.9475 68.9735 38.9475C68.6628 38.9475 68.4143 39.0108 68.2527 39.1374C68.0911 39.2641 68.0042 39.4414 68.0042 39.6566C68.0042 39.8719 68.0663 40.0239 68.203 40.1379C68.3397 40.2519 68.5013 40.3025 68.7125 40.3025C68.9114 40.3025 69.1102 40.2519 69.2966 40.1505Z" fill="#0A2F2A"/>
<path d="M74.6405 40.9105C74.3671 40.7838 74.1434 40.6065 73.9818 40.3912C73.8203 40.1759 73.7208 39.9226 73.696 39.644H74.6156C74.6529 39.8467 74.7523 40.0113 74.9139 40.1253C75.0754 40.2392 75.2867 40.3026 75.5477 40.3026C75.7962 40.3026 75.9827 40.2519 76.1318 40.1506C76.2685 40.0493 76.3431 39.9226 76.3431 39.7707C76.3431 39.644 76.2933 39.5427 76.1939 39.4667C76.0945 39.3907 75.9329 39.3148 75.6844 39.2388L75.1003 39.0741C74.6902 38.9475 74.3795 38.7829 74.1558 38.5676C73.9445 38.365 73.8327 38.0863 73.8327 37.7317C73.8327 37.4785 73.9073 37.2378 74.044 37.0225C74.1807 36.8073 74.3795 36.63 74.6281 36.5033C74.8766 36.3767 75.1624 36.3134 75.4855 36.3134C75.8087 36.3134 76.1069 36.3767 76.3555 36.4906C76.604 36.6046 76.8029 36.7819 76.952 36.9972C77.1011 37.2125 77.1881 37.4658 77.2254 37.7317H76.3306C76.2809 37.5291 76.1939 37.3771 76.0572 37.2758C75.9205 37.1745 75.7341 37.1112 75.4855 37.1112C75.237 37.1112 75.063 37.1619 74.9387 37.2632C74.8269 37.3645 74.7648 37.4911 74.7648 37.6304C74.7648 37.7571 74.8145 37.8584 74.9139 37.947C75.0133 38.0357 75.1624 38.099 75.3613 38.1623L75.9454 38.327C76.4052 38.4663 76.7407 38.6309 76.952 38.8462C77.1633 39.0488 77.2751 39.3274 77.2751 39.682C77.2751 39.9353 77.2006 40.1759 77.0639 40.3912C76.9272 40.6065 76.7283 40.7711 76.4673 40.8978C76.2064 41.0244 75.9081 41.0877 75.5601 41.0877C75.2121 41.1004 74.9139 41.0371 74.6405 40.9105Z" fill="#0A2F2A"/>
<path d="M79.0026 40.7965C78.6547 40.5938 78.3813 40.3152 78.1824 39.948C77.9836 39.5807 77.8842 39.1755 77.8842 38.7069C77.8842 38.2383 77.9836 37.8204 78.1824 37.4658C78.3813 37.0985 78.6547 36.8199 79.0026 36.6173C79.3506 36.4147 79.7359 36.3134 80.1584 36.3134C80.581 36.3134 80.9662 36.4147 81.3142 36.6173C81.6622 36.8199 81.9356 37.0985 82.1344 37.4658C82.3332 37.8331 82.4327 38.2383 82.4327 38.7069C82.4327 39.1628 82.3332 39.5807 82.1344 39.948C81.9356 40.3152 81.6622 40.5938 81.3142 40.7965C80.9662 40.9991 80.581 41.1004 80.1584 41.1004C79.7359 41.1004 79.3506 40.9991 79.0026 40.7965ZM80.8171 40.024C81.0159 39.91 81.165 39.7327 81.2769 39.5174C81.3887 39.2894 81.4385 39.0235 81.4385 38.7195C81.4385 38.4029 81.3887 38.137 81.2769 37.909C81.165 37.6811 81.0159 37.5038 80.8171 37.3898C80.6182 37.2758 80.407 37.2125 80.1584 37.2125C79.9099 37.2125 79.6862 37.2758 79.4997 37.3898C79.3009 37.5038 79.1518 37.6811 79.0399 37.909C78.9281 38.137 78.8784 38.4029 78.8784 38.7195C78.8784 39.0362 78.9281 39.3021 79.0399 39.5174C79.1518 39.7453 79.3009 39.91 79.4997 40.0366C79.6986 40.1506 79.9099 40.2139 80.1584 40.2139C80.407 40.2013 80.6307 40.1379 80.8171 40.024Z" fill="#0A2F2A"/>
<path d="M84.2222 40.7965C83.8742 40.5938 83.6008 40.3152 83.402 39.948C83.2031 39.5807 83.1037 39.1628 83.1037 38.7069C83.1037 38.2383 83.2031 37.8331 83.402 37.4658C83.6008 37.0985 83.8742 36.8199 84.2222 36.6173C84.5702 36.4147 84.9554 36.3134 85.378 36.3134C85.7632 36.3134 86.0988 36.3893 86.3846 36.554C86.6828 36.7186 86.9065 36.9339 87.093 37.2125C87.2669 37.4911 87.3788 37.7951 87.4037 38.137H86.484C86.4343 37.871 86.3225 37.6431 86.1236 37.4785C85.9248 37.3012 85.6762 37.2125 85.378 37.2125C85.117 37.2125 84.8933 37.2758 84.6944 37.3898C84.4956 37.5038 84.3465 37.6811 84.247 37.8964C84.1476 38.1117 84.0855 38.3903 84.0855 38.7069C84.0855 39.0235 84.1352 39.2894 84.247 39.5047C84.3589 39.7327 84.508 39.8973 84.6944 40.024C84.8933 40.1379 85.117 40.2013 85.3655 40.2013C85.6762 40.2013 85.9248 40.1253 86.1236 39.9606C86.3225 39.796 86.4467 39.568 86.4964 39.2894H87.4161C87.3788 39.6314 87.2669 39.948 87.0805 40.2266C86.9065 40.5052 86.6704 40.7205 86.3722 40.8725C86.0739 41.0244 85.7384 41.1004 85.3531 41.1004C84.9554 41.1004 84.5702 40.9991 84.2222 40.7965Z" fill="#0A2F2A"/>
<path d="M88.3606 35.3508C88.2363 35.2242 88.1742 35.0722 88.1742 34.8823C88.1742 34.705 88.2363 34.553 88.3606 34.4264C88.4849 34.2997 88.6464 34.2364 88.8204 34.2364C89.0068 34.2364 89.156 34.2997 89.2802 34.4264C89.4045 34.553 89.4667 34.705 89.4667 34.8823C89.4667 35.0722 89.4045 35.2242 89.2802 35.3508C89.156 35.4775 89.0068 35.5408 88.8329 35.5408C88.6464 35.5408 88.4849 35.4775 88.3606 35.3508ZM88.3358 36.3893H89.3175V41.0371H88.3358V36.3893Z" fill="#0A2F2A"/>
<path d="M91.3681 40.7964C91.0201 40.5938 90.7467 40.3152 90.5478 39.9479C90.349 39.5807 90.2496 39.1628 90.2496 38.7069C90.2496 38.2509 90.349 37.8457 90.5354 37.4784C90.7343 37.1112 90.9952 36.8326 91.3432 36.6173C91.6912 36.4146 92.0764 36.3007 92.499 36.3007C92.9091 36.3007 93.2695 36.3893 93.5926 36.5793C93.9157 36.7692 94.1643 37.0225 94.3383 37.3518C94.5122 37.6684 94.5992 38.0357 94.5992 38.4156C94.5992 38.5675 94.5868 38.7069 94.5495 38.8335H91.2314C91.2314 39.1248 91.2935 39.3654 91.4178 39.5807C91.5296 39.796 91.6912 39.9479 91.89 40.0619C92.0889 40.1632 92.3001 40.2266 92.5487 40.2266C92.8345 40.2266 93.0831 40.1506 93.2819 40.0113C93.4808 39.8593 93.6175 39.682 93.692 39.454H94.6117C94.562 39.7706 94.4501 40.0493 94.2513 40.3025C94.0524 40.5558 93.8163 40.7458 93.518 40.8978C93.2198 41.0371 92.8967 41.113 92.5487 41.113C92.1013 41.1004 91.716 40.9991 91.3681 40.7964ZM93.4186 37.5924C93.3192 37.4531 93.1949 37.3391 93.0458 37.2631C92.8842 37.1872 92.7102 37.1365 92.499 37.1365C92.2131 37.1365 91.9646 37.2125 91.7533 37.3771C91.542 37.5417 91.4053 37.7697 91.3184 38.0736H93.605C93.5802 37.8963 93.518 37.7317 93.4186 37.5924Z" fill="#0A2F2A"/>
<path d="M96.2894 40.7965C95.9787 40.5938 95.7177 40.3152 95.5313 39.9606C95.3449 39.5934 95.2579 39.1881 95.2579 38.7069C95.2579 38.251 95.3574 37.8457 95.5438 37.4784C95.7426 37.1112 96.0036 36.8199 96.3267 36.6173C96.6498 36.4147 96.9978 36.3133 97.3706 36.3133C97.6316 36.3133 97.8802 36.364 98.1039 36.478C98.3276 36.592 98.514 36.7439 98.6631 36.9212V34.2238H99.6449V41.0118H98.7501L98.7252 40.4039C98.5637 40.6192 98.3648 40.7838 98.1287 40.8978C97.8926 41.0244 97.6316 41.0877 97.3333 41.0877C96.9481 41.1004 96.6001 40.9991 96.2894 40.7965ZM98.1411 40.0366C98.34 39.9226 98.514 39.7707 98.6507 39.5807V37.8457C98.5264 37.6557 98.3648 37.5038 98.166 37.3898C97.9672 37.2758 97.7435 37.2125 97.4825 37.2125C97.2464 37.2125 97.0351 37.2758 96.8487 37.3898C96.6622 37.5038 96.5131 37.6811 96.4013 37.909C96.2894 38.137 96.2397 38.4029 96.2397 38.7069C96.2397 39.0235 96.2894 39.2894 96.3888 39.5174C96.4883 39.7453 96.625 39.91 96.8114 40.0366C96.9978 40.1506 97.2091 40.2139 97.4576 40.2139C97.7186 40.2139 97.9423 40.1506 98.1411 40.0366Z" fill="#0A2F2A"/>
<path d="M101.397 40.9357C101.173 40.8344 100.987 40.6698 100.85 40.4545C100.714 40.2392 100.639 39.9986 100.639 39.7073C100.639 39.4034 100.714 39.1501 100.863 38.9348C101.012 38.7195 101.223 38.5549 101.509 38.4409C101.782 38.3269 102.106 38.2763 102.453 38.2763C102.789 38.2763 103.112 38.3396 103.41 38.4789V38.1243C103.41 37.833 103.323 37.605 103.137 37.4531C102.963 37.3011 102.69 37.2125 102.329 37.2125C101.845 37.2125 101.385 37.3264 100.95 37.5671V36.7185C101.397 36.4653 101.882 36.3386 102.404 36.3386C102.814 36.3386 103.174 36.4146 103.473 36.5666C103.771 36.7186 103.995 36.9338 104.144 37.1998C104.293 37.4657 104.38 37.7823 104.38 38.1496V41.0497H103.485L103.46 40.4418C103.311 40.6571 103.112 40.8218 102.888 40.9484C102.665 41.0624 102.404 41.1257 102.13 41.1257C101.869 41.1004 101.621 41.037 101.397 40.9357ZM102.926 40.1505C103.112 40.0492 103.274 39.8973 103.423 39.682V39.1121C103.149 39.0108 102.876 38.9475 102.603 38.9475C102.292 38.9475 102.043 39.0108 101.882 39.1374C101.72 39.2641 101.633 39.4414 101.633 39.6566C101.633 39.8719 101.695 40.0239 101.832 40.1379C101.969 40.2519 102.13 40.3025 102.342 40.3025C102.553 40.3025 102.739 40.2519 102.926 40.1505Z" fill="#0A2F2A"/>
<path d="M106.306 40.7965C105.995 40.5938 105.734 40.3152 105.548 39.9606C105.361 39.5934 105.274 39.1881 105.274 38.7069C105.274 38.251 105.374 37.8457 105.56 37.4784C105.747 37.1112 106.02 36.8199 106.343 36.6173C106.666 36.4147 107.014 36.3133 107.387 36.3133C107.648 36.3133 107.897 36.364 108.12 36.478C108.344 36.592 108.531 36.7439 108.68 36.9212V34.2238H109.661V41.0118H108.767L108.742 40.4039C108.58 40.6192 108.381 40.7838 108.145 40.8978C107.909 41.0244 107.648 41.0877 107.35 41.0877C106.977 41.1004 106.629 40.9991 106.306 40.7965ZM108.17 40.0366C108.369 39.9226 108.543 39.7707 108.68 39.5807V37.8457C108.555 37.6557 108.394 37.5038 108.195 37.3898C107.996 37.2758 107.772 37.2125 107.511 37.2125C107.275 37.2125 107.064 37.2758 106.878 37.3898C106.691 37.5038 106.542 37.6811 106.43 37.909C106.318 38.137 106.269 38.4029 106.269 38.7069C106.269 39.0235 106.318 39.2894 106.418 39.5174C106.517 39.7453 106.654 39.91 106.84 40.0366C107.027 40.1506 107.238 40.2139 107.487 40.2139C107.748 40.2139 107.971 40.1506 108.17 40.0366Z" fill="#0A2F2A"/>
<path d="M111.712 40.7964C111.364 40.5938 111.091 40.3152 110.892 39.9479C110.693 39.5807 110.594 39.1628 110.594 38.7069C110.594 38.2509 110.693 37.8457 110.879 37.4784C111.078 37.1112 111.339 36.8326 111.687 36.6173C112.035 36.4146 112.42 36.3007 112.843 36.3007C113.253 36.3007 113.613 36.3893 113.937 36.5793C114.26 36.7692 114.508 37.0225 114.682 37.3518C114.856 37.6684 114.943 38.0357 114.943 38.4156C114.943 38.5675 114.931 38.7069 114.894 38.8335H111.575C111.575 39.1248 111.637 39.3654 111.762 39.5807C111.874 39.796 112.035 39.9479 112.234 40.0619C112.433 40.1632 112.644 40.2266 112.893 40.2266C113.179 40.2266 113.427 40.1506 113.626 40.0113C113.825 39.8593 113.961 39.682 114.036 39.454H114.956C114.906 39.7706 114.794 40.0493 114.595 40.3025C114.396 40.5558 114.16 40.7458 113.862 40.8978C113.564 41.0371 113.241 41.113 112.893 41.113C112.458 41.1004 112.06 40.9991 111.712 40.7964ZM113.775 37.5924C113.676 37.4531 113.551 37.3391 113.402 37.2631C113.241 37.1872 113.067 37.1365 112.855 37.1365C112.57 37.1365 112.321 37.2125 112.11 37.3771C111.898 37.5417 111.762 37.7697 111.675 38.0736H113.961C113.924 37.8963 113.862 37.7317 113.775 37.5924Z" fill="#0A2F2A"/>
<path d="M117.889 36.3893H118.771L118.808 37.2505C118.97 36.9592 119.181 36.7312 119.43 36.5666C119.678 36.402 119.964 36.3133 120.275 36.3133C120.585 36.3133 120.859 36.3893 121.095 36.5539C121.331 36.7186 121.505 36.9592 121.629 37.2631C121.828 36.9592 122.052 36.7312 122.325 36.5539C122.586 36.3893 122.884 36.3007 123.208 36.3007C123.506 36.3007 123.767 36.3766 124.003 36.516C124.239 36.6679 124.413 36.8705 124.537 37.1492C124.662 37.4278 124.724 37.757 124.724 38.1243V40.9991H123.742V38.2509C123.742 37.9217 123.667 37.6557 123.531 37.4784C123.394 37.3011 123.195 37.2125 122.947 37.2125C122.723 37.2125 122.512 37.2885 122.313 37.4531C122.114 37.6177 121.952 37.833 121.791 38.1243V40.9864H120.809V38.2383C120.809 37.909 120.734 37.6431 120.598 37.4658C120.449 37.2885 120.262 37.1998 120.014 37.1998C119.778 37.1998 119.566 37.2758 119.367 37.4404C119.169 37.6051 119.007 37.833 118.845 38.137V40.9737H117.864V36.3893H117.889Z" fill="#0A2F2A"/>
<path d="M126.464 40.9357C126.24 40.8344 126.053 40.6698 125.917 40.4545C125.78 40.2392 125.706 39.9986 125.706 39.7073C125.706 39.4034 125.78 39.1501 125.929 38.9348C126.078 38.7195 126.29 38.5549 126.575 38.4409C126.849 38.3269 127.172 38.2763 127.52 38.2763C127.855 38.2763 128.179 38.3396 128.477 38.4789V38.1243C128.477 37.833 128.39 37.605 128.203 37.4531C128.029 37.3011 127.756 37.2125 127.396 37.2125C126.911 37.2125 126.451 37.3264 126.016 37.5671V36.7185C126.464 36.4653 126.948 36.3386 127.47 36.3386C127.88 36.3386 128.241 36.4146 128.539 36.5666C128.837 36.7186 129.061 36.9338 129.21 37.1998C129.359 37.4657 129.446 37.7823 129.446 38.1496V41.0497H128.551L128.527 40.4418C128.377 40.6571 128.179 40.8218 127.955 40.9484C127.731 41.0624 127.47 41.1257 127.197 41.1257C126.936 41.1004 126.687 41.037 126.464 40.9357ZM127.992 40.1505C128.179 40.0492 128.34 39.8973 128.489 39.682V39.1121C128.216 39.0108 127.942 38.9475 127.669 38.9475C127.358 38.9475 127.11 39.0108 126.948 39.1374C126.787 39.2641 126.7 39.4414 126.7 39.6566C126.7 39.8719 126.762 40.0239 126.899 40.1379C127.035 40.2519 127.197 40.3025 127.408 40.3025C127.607 40.3025 127.806 40.2519 127.992 40.1505Z" fill="#0A2F2A"/>
<path d="M130.652 35.3508C130.527 35.2242 130.465 35.0722 130.465 34.8823C130.465 34.705 130.527 34.553 130.652 34.4264C130.776 34.2997 130.937 34.2364 131.111 34.2364C131.298 34.2364 131.447 34.2997 131.571 34.4264C131.696 34.553 131.758 34.705 131.758 34.8823C131.758 35.0722 131.696 35.2242 131.571 35.3508C131.447 35.4775 131.298 35.5408 131.124 35.5408C130.937 35.5408 130.776 35.4775 130.652 35.3508ZM130.627 36.3893H131.609V41.0371H130.627V36.3893Z" fill="#0A2F2A"/>
<path d="M133.522 40.9105C133.249 40.7838 133.025 40.6065 132.864 40.3912C132.702 40.1759 132.603 39.9226 132.578 39.644H133.498C133.535 39.8467 133.634 40.0113 133.796 40.1253C133.957 40.2392 134.169 40.3026 134.43 40.3026C134.678 40.3026 134.865 40.2519 135.014 40.1506C135.15 40.0493 135.225 39.9226 135.225 39.7707C135.225 39.644 135.175 39.5427 135.076 39.4667C134.976 39.3907 134.815 39.3148 134.566 39.2388L133.982 39.0741C133.572 38.9475 133.261 38.7829 133.038 38.5676C132.827 38.365 132.715 38.0863 132.715 37.7317C132.715 37.4785 132.789 37.2378 132.926 37.0225C133.063 36.8073 133.261 36.63 133.51 36.5033C133.759 36.3767 134.044 36.3134 134.368 36.3134C134.691 36.3134 134.989 36.3767 135.237 36.4906C135.486 36.6046 135.685 36.7819 135.834 36.9972C135.983 37.2125 136.07 37.4658 136.107 37.7317H135.213C135.163 37.5291 135.076 37.3771 134.939 37.2758C134.802 37.1745 134.616 37.1112 134.368 37.1112C134.119 37.1112 133.945 37.1619 133.821 37.2632C133.709 37.3645 133.647 37.4911 133.647 37.6304C133.647 37.7571 133.696 37.8584 133.796 37.947C133.895 38.0357 134.044 38.099 134.243 38.1623L134.827 38.327C135.287 38.4663 135.623 38.6309 135.834 38.8462C136.045 39.0488 136.157 39.3274 136.157 39.682C136.157 39.9353 136.083 40.1759 135.946 40.3912C135.809 40.6065 135.61 40.7711 135.349 40.8978C135.088 41.0244 134.79 41.0877 134.442 41.0877C134.094 41.1004 133.796 41.0371 133.522 40.9105Z" fill="#0A2F2A"/>
<path d="M139.749 40.9105C139.475 40.7838 139.252 40.6065 139.09 40.3912C138.928 40.1759 138.829 39.9226 138.804 39.644H139.724C139.761 39.8467 139.861 40.0113 140.022 40.1253C140.184 40.2392 140.395 40.3026 140.656 40.3026C140.904 40.3026 141.091 40.2519 141.24 40.1506C141.377 40.0493 141.451 39.9226 141.451 39.7707C141.451 39.644 141.402 39.5427 141.302 39.4667C141.203 39.3907 141.041 39.3148 140.793 39.2388L140.209 39.0741C139.798 38.9475 139.488 38.7829 139.264 38.5676C139.053 38.365 138.941 38.0863 138.941 37.7317C138.941 37.4785 139.015 37.2378 139.152 37.0225C139.289 36.8073 139.488 36.63 139.736 36.5033C139.985 36.3767 140.271 36.3134 140.594 36.3134C140.917 36.3134 141.215 36.3767 141.464 36.4906C141.712 36.6046 141.911 36.7819 142.06 36.9972C142.209 37.2125 142.296 37.4658 142.334 37.7317H141.439C141.389 37.5291 141.302 37.3771 141.165 37.2758C141.029 37.1745 140.842 37.1112 140.594 37.1112C140.345 37.1112 140.171 37.1619 140.047 37.2632C139.935 37.3645 139.873 37.4911 139.873 37.6304C139.873 37.7571 139.923 37.8584 140.022 37.947C140.122 38.0357 140.271 38.099 140.469 38.1623L141.054 38.327C141.513 38.4663 141.849 38.6309 142.06 38.8462C142.272 39.0488 142.383 39.3274 142.383 39.682C142.383 39.9353 142.309 40.1759 142.172 40.3912C142.035 40.6065 141.837 40.7711 141.576 40.8978C141.315 41.0244 141.016 41.0877 140.668 41.0877C140.32 41.1004 140.022 41.0371 139.749 40.9105Z" fill="#0A2F2A"/>
<path d="M143.788 40.9357C143.564 40.8344 143.378 40.6698 143.241 40.4545C143.104 40.2392 143.03 39.9986 143.03 39.7073C143.03 39.4034 143.104 39.1501 143.253 38.9348C143.402 38.7195 143.614 38.5549 143.9 38.4409C144.173 38.3269 144.496 38.2763 144.844 38.2763C145.18 38.2763 145.503 38.3396 145.801 38.4789V38.1243C145.801 37.833 145.714 37.605 145.528 37.4531C145.354 37.3011 145.08 37.2125 144.72 37.2125C144.235 37.2125 143.775 37.3264 143.34 37.5671V36.7185C143.788 36.4653 144.272 36.3386 144.794 36.3386C145.204 36.3386 145.565 36.4146 145.863 36.5666C146.161 36.7186 146.385 36.9338 146.534 37.1998C146.683 37.4657 146.77 37.7823 146.77 38.1496V41.0497H145.876L145.851 40.4418C145.702 40.6571 145.503 40.8218 145.279 40.9484C145.055 41.0624 144.794 41.1257 144.521 41.1257C144.26 41.1004 144.011 41.037 143.788 40.9357ZM145.316 40.1505C145.503 40.0492 145.664 39.8973 145.813 39.682V39.1121C145.54 39.0108 145.267 38.9475 144.993 38.9475C144.682 38.9475 144.434 39.0108 144.272 39.1374C144.111 39.2641 144.024 39.4414 144.024 39.6566C144.024 39.8719 144.086 40.0239 144.223 40.1379C144.359 40.2519 144.521 40.3025 144.732 40.3025C144.943 40.3025 145.13 40.2519 145.316 40.1505Z" fill="#0A2F2A"/>
<path d="M148.659 40.8851C148.423 40.7458 148.237 40.5432 148.112 40.2899C147.976 40.0239 147.914 39.7073 147.914 39.3274V36.3766H148.895V39.2641C148.895 39.5554 148.97 39.7833 149.107 39.9353C149.243 40.0873 149.43 40.1632 149.678 40.1632C149.914 40.1632 150.151 40.0872 150.349 39.9479C150.561 39.8086 150.747 39.5933 150.909 39.3147V36.3766H151.89V41.0244H150.996L150.958 40.2899C150.784 40.5305 150.573 40.7331 150.325 40.8724C150.076 41.0244 149.79 41.0877 149.48 41.0877C149.156 41.1004 148.883 41.0244 148.659 40.8851Z" fill="#0A2F2A"/>
<path d="M153.829 40.7965C153.518 40.5938 153.257 40.3152 153.071 39.9606C152.885 39.5934 152.798 39.1881 152.798 38.7069C152.798 38.251 152.897 37.8457 153.083 37.4784C153.27 37.1112 153.543 36.8199 153.866 36.6173C154.19 36.4147 154.538 36.3133 154.91 36.3133C155.171 36.3133 155.42 36.364 155.644 36.478C155.867 36.592 156.054 36.7439 156.203 36.9212V34.2238H157.185V41.0118H156.29L156.265 40.4039C156.103 40.6192 155.905 40.7838 155.668 40.8978C155.432 41.0244 155.171 41.0877 154.873 41.0877C154.5 41.1004 154.152 40.9991 153.829 40.7965ZM155.693 40.0366C155.892 39.9226 156.066 39.7707 156.203 39.5807V37.8457C156.079 37.6557 155.917 37.5038 155.718 37.3898C155.519 37.2758 155.296 37.2125 155.035 37.2125C154.799 37.2125 154.587 37.2758 154.401 37.3898C154.214 37.5038 154.065 37.6811 153.953 37.909C153.842 38.137 153.792 38.4029 153.792 38.7069C153.792 39.0235 153.842 39.2894 153.941 39.5174C154.04 39.7453 154.177 39.91 154.364 40.0366C154.55 40.1506 154.761 40.2139 155.01 40.2139C155.258 40.2139 155.494 40.1506 155.693 40.0366Z" fill="#0A2F2A"/>
<path d="M158.949 40.9358C158.726 40.8345 158.539 40.6698 158.403 40.4545C158.266 40.2392 158.191 39.9986 158.191 39.7074C158.191 39.4034 158.266 39.1501 158.415 38.9348C158.564 38.7195 158.775 38.5549 159.061 38.4409C159.335 38.327 159.658 38.2763 160.006 38.2763C160.341 38.2763 160.664 38.3396 160.963 38.4789V38.1243C160.963 37.8331 160.876 37.6051 160.689 37.4531C160.515 37.3012 160.242 37.2125 159.881 37.2125C159.397 37.2125 158.937 37.3265 158.502 37.5671V36.7186C158.949 36.4653 159.434 36.3387 159.956 36.3387C160.366 36.3387 160.727 36.4147 161.025 36.5666C161.323 36.7186 161.547 36.9339 161.696 37.1998C161.845 37.4658 161.932 37.7824 161.932 38.1497V41.0498H161.037L161.012 40.4419C160.863 40.6572 160.664 40.8218 160.441 40.9484C160.217 41.0624 159.956 41.1257 159.683 41.1257C159.422 41.1004 159.173 41.0371 158.949 40.9358ZM160.478 40.1506C160.664 40.0493 160.826 39.8973 160.975 39.682V39.1121C160.702 39.0108 160.428 38.9475 160.155 38.9475C159.844 38.9475 159.596 39.0108 159.434 39.1375C159.272 39.2641 159.185 39.4414 159.185 39.6567C159.185 39.872 159.248 40.024 159.384 40.1379C159.521 40.2519 159.683 40.3026 159.894 40.3026C160.093 40.3026 160.292 40.2519 160.478 40.1506ZM160.478 34.2997H161.621L160.279 35.6421H159.422L160.478 34.2997Z" fill="#0A2F2A"/>
<path d="M162.379 36.3893H163.436L164.716 39.834L165.971 36.3893H166.965L165.176 41.0371H164.169L162.379 36.3893Z" fill="#0A2F2A"/>
<path d="M168.345 40.7964C167.997 40.5938 167.723 40.3152 167.524 39.9479C167.325 39.5807 167.226 39.1628 167.226 38.7069C167.226 38.2509 167.326 37.8457 167.512 37.4784C167.711 37.1112 167.972 36.8326 168.32 36.6173C168.668 36.4146 169.053 36.3007 169.475 36.3007C169.886 36.3007 170.246 36.3893 170.569 36.5793C170.892 36.7692 171.141 37.0225 171.315 37.3518C171.489 37.6684 171.576 38.0357 171.576 38.4156C171.576 38.5675 171.563 38.7069 171.526 38.8335H168.208C168.208 39.1248 168.27 39.3654 168.394 39.5807C168.506 39.796 168.668 39.9479 168.867 40.0619C169.065 40.1632 169.277 40.2266 169.525 40.2266C169.811 40.2266 170.06 40.1506 170.258 40.0113C170.457 39.8593 170.594 39.682 170.669 39.454H171.588C171.538 39.7706 171.427 40.0493 171.228 40.3025C171.029 40.5558 170.793 40.7458 170.495 40.8978C170.196 41.0371 169.873 41.113 169.525 41.113C169.078 41.1004 168.693 40.9991 168.345 40.7964ZM170.395 37.5924C170.296 37.4531 170.171 37.3391 170.022 37.2631C169.861 37.1872 169.687 37.1365 169.475 37.1365C169.19 37.1365 168.941 37.2125 168.73 37.3771C168.519 37.5417 168.382 37.7697 168.295 38.0736H170.582C170.544 37.8963 170.482 37.7317 170.395 37.5924Z" fill="#0A2F2A"/>
<path d="M172.508 34.2364H173.49V41.0244H172.508V34.2364Z" fill="#0A2F2A"/>
<path d="M174.869 40.9105C174.745 40.7838 174.67 40.6319 174.67 40.4292C174.67 40.2393 174.732 40.0873 174.869 39.9607C174.993 39.834 175.155 39.7707 175.341 39.7707C175.528 39.7707 175.689 39.834 175.814 39.9607C175.938 40.0873 176 40.2393 176 40.4166C176 40.6065 175.938 40.7712 175.801 40.8978C175.677 41.0244 175.515 41.0878 175.329 41.0878C175.155 41.1004 174.993 41.0371 174.869 40.9105Z" fill="#0A2F2A"/>
</svg>
