<svg width="22" height="31" viewBox="0 0 22 31" fill="none" xmlns="http://www.w3.org/2000/svg">
<path d="M8.5 8.5H1V22H8.5L17 29.5V1L8.5 8.5Z" fill="#4CA15D"/>
<path d="M1 8.5V7.5H0V8.5H1ZM8.5 8.5V9.5H8.8781L9.16162 9.24984L8.5 8.5ZM17 1H18C18 0.606872 17.7697 0.250216 17.4113 0.0885118C17.053 -0.0731922 16.6332 -0.00994015 16.3384 0.250162L17 1ZM17 29.5L16.3384 30.2498C16.6332 30.5099 17.053 30.5732 17.4113 30.4115C17.7697 30.2498 18 29.8931 18 29.5H17ZM8.5 22L9.16162 21.2502L8.8781 21H8.5V22ZM1 22H0V23H1V22ZM1 9.5H8.5V7.5H1V9.5ZM9.16162 9.24984L17.6616 1.74984L16.3384 0.250162L7.83838 7.75016L9.16162 9.24984ZM16 1V29.5H18V1H16ZM17.6616 28.7502L9.16162 21.2502L7.83838 22.7498L16.3384 30.2498L17.6616 28.7502ZM8.5 21H1V23H8.5V21ZM2 22V8.5H0V22H2Z" fill="#4CA15D"/>
<path d="M8 9V22" stroke="#4CA15D" stroke-width="2"/>
<path d="M21 15C21 11 18.3333 10 17 10V20C18.3333 20 21 19 21 15Z" fill="#4CA15D" stroke="#4CA15D" stroke-width="2"/>
<path d="M8.5 6.5V24M18.5 6.5V24" stroke="white"/>
</svg>
