<svg width="24" height="28" viewBox="0 0 24 28" fill="none" xmlns="http://www.w3.org/2000/svg">
<path d="M1 2C1 1.45255 1.45032 1 2.00746 1H2.04711H2.08659H2.12588H2.16498H2.2039H2.24264H2.2812H2.31958H2.35778H2.3958H2.43365H2.47131H2.5088H2.54612H2.58326H2.62022H2.65701H2.69363H2.73008H2.76635H2.80246H2.8384H2.87416H2.90976H2.94519H2.98046H3.01556H3.0505H3.08527H3.11987H3.15432H3.1886H3.22272H3.25669H3.29049H3.32413H3.35762H3.39095H3.42412H3.45713H3.49H3.5227H3.55526H3.58766H3.61991H3.652H3.68395H3.71575H3.7474H3.7789H3.81026H3.84146H3.87252H3.90344H3.93421H3.96484H3.99533H4.02568H4.05588H4.08594H4.11587H4.14565H4.1753H4.20481H4.23418H4.26342H4.29252H4.32149H4.35033H4.37903H4.4076H4.43604H4.46435H4.49253H4.52058H4.5485H4.57629H4.60396H4.63151H4.65892H4.68622H4.71339H4.74044H4.76736H4.79417H4.82085H4.84741H4.87386H4.90019H4.9264H4.95249H4.97847H5.00433H5.03008H5.05572H5.08124H5.10665H5.13195H5.15714H5.18222H5.20719H5.23206H5.25681H5.28146H5.306H5.33044H5.35478H5.37901H5.40313H5.42716H5.45109H5.47491H5.49863H5.52226H5.54579H5.56922H5.59255H5.61579H5.63893H5.66198H5.68494H5.7078H5.73057H5.75325H5.77584H5.79834H5.82075H5.84307H5.86531H5.88746H5.90952H5.9315H5.95339H5.9752H5.99693H6.01857H6.04014H6.06162H6.08302H6.10435H6.1256H6.14677H6.16786H6.18888H6.20982H6.23069H6.25148H6.2722H6.29285H6.31343H6.33394H6.35438H6.37474H6.39505H6.41528H6.43545H6.45555H6.47559H6.49556H6.51547H6.53531H6.5551H6.57482H6.59448H6.61408H6.63363H6.65311H6.67254H6.69191H6.71123H6.73049H6.74969H6.76885H6.78795H6.80699H6.82599H6.84494H6.86383H6.88268H6.90148H6.92023H6.93894H6.9576H6.97621H6.99478H7.01331H7.03179H7.05023H7.06863H7.08699H7.10531H7.12359H7.14184H7.16004H7.17821H7.19634H7.21444H7.2325H7.25053H7.26853H7.2865H7.30443H7.32233H7.34021H7.35805H7.37587H7.39366H7.41142H7.42916H7.44687H7.46455H7.48222H7.49986H7.51748H7.53507H7.55265H7.57021H7.58775H7.60527H7.62277H7.64025H7.65772H7.67518H7.69262H7.71005H7.72746H7.74486H7.76225H7.77963H7.797H7.81436H7.83172H7.84906H7.8664H7.88373H7.90106H7.91838H7.9357H7.95302H7.97033H7.98765H8.00496H8.02227H8.03959H8.0569H8.07422H8.09154H8.10887H8.1262H8.14354H8.16088H8.17823H8.19559H8.21295H8.23033H8.24771H8.26511H8.28252H8.29994H8.31737H8.33482H8.35229H8.36976H8.38726H8.40477H8.4223H8.43985H8.45742H8.47501H8.49262H8.51025H8.5279H8.54558H8.56328H8.58101H8.59876H8.61653H8.63434H8.65217H8.67003H8.68792H8.70584H8.72379H8.74178H8.75979H8.77784H8.79593H8.81404H8.8322H8.85039H8.86862H8.88688H8.90518H8.92353H8.94191H8.96033H8.9788H8.99731H9.01586H9.03445H9.05309H9.07178H9.09051H9.10929H9.12812H9.14699H9.16592H9.18489H9.20392H9.22299H9.24212H9.26131H9.28054H9.29984H9.31918H9.33859H9.35805H9.37757H9.39714H9.41678H9.43648H9.45623H9.47605H9.49594H9.51588H9.53589H9.55596H9.5761H9.59631H9.61658H9.63692H9.65733H9.67781H9.69835H9.71897H9.73967H9.76043H9.78126H9.80217H9.82316H9.84422H9.86536H9.88657H9.90786H9.92923H9.95068H9.97221H9.99382H10.0155H10.0373H10.0591H10.0811H10.1031H10.1252H10.1474H10.1697H10.1921H10.2145H10.2371H10.2597H10.2825H10.3053H10.3282H10.3512H10.3743H10.3975H10.4208H10.4442H10.4677H10.4913H10.5149H10.5387H10.5626H10.5866H10.6107H10.6349H10.6592H10.6835H10.708H10.7327H10.7574H10.7822H10.8071H10.8321H10.8573H10.8825H10.9079H10.9334H10.959H10.9847H11.0105H11.0364H11.0624H11.0886H11.1149H11.1413H11.1678H11.1944H11.2212H11.2481H11.275H11.3022H11.3294H11.3568H11.3843H11.4119H11.4396H11.4675H11.4955H11.5236H11.5519H11.5802H11.6088H11.6374H11.6662H11.6951H11.7241H11.7533H11.7826H11.8121H11.8417H11.8714H11.9013H11.9313H11.9614H11.9917H12.0221H12.0527H12.0834H12.1143H12.1453H12.1764H12.2077H12.2391H12.2707H12.3025H12.3343H12.3664H12.3986H12.4309H12.4634H12.496H12.5288H12.5618H12.5949H12.6281H12.6616H12.6951H12.7289H12.7628H12.7968H12.831H12.8654H12.8999H12.9346H12.9695H13.0045H13.0397H13.0751H13.1106H13.1463H13.1822H13.2182H13.2544H13.2908H13.3273H13.3641H13.4009H13.438H13.4752H13.5127H13.5503H13.588H13.626H13.6641H13.7024H13.7409H13.7795H13.8184H13.8574H13.8966H13.936H13.9756H14.0154H14.0553H14.0954H14.1358H14.1763H14.217H14.2579H14.299H14.3402H14.3817H14.4234H14.4652H14.5073H14.5495H14.5919H14.6346H14.6774H14.7204H14.7637H14.8071H14.8507H14.8946H14.9386H14.9828H15.0273H15.0719H15.1168H15.1618H15.2071C15.4622 1 15.7085 1.09742 15.893 1.27046L22.6839 7.63693C22.8856 7.82597 23 8.09006 23 8.36646V26C23 26.5523 22.5523 27 22 27H2C1.44772 27 1 26.5523 1 26V2Z" fill="#4CA15D" stroke="#4CA15D" stroke-width="2"/>
<path d="M14 8.93555V2L22 9.5L15.0624 9.9336C14.4867 9.96958 14 9.51237 14 8.93555Z" fill="white"/>
</svg>
