<svg xmlns="http://www.w3.org/2000/svg" width="22.056" height="29.204" viewBox="0 0 22.056 29.204">
  <path id="Path_1996" data-name="Path 1996" d="M114.833,137.884v10.755l.064.056,7.533,5.772V132.056l-7.593,5.821,0,.008Zm-1.345.229H108.9v10.3h4.589v-10.3Zm.3-2.248,9.031-6.926a1.123,1.123,0,0,1,1.865.843v7.451a6.529,6.529,0,0,1,0,12.058v7.451h-.007a1.144,1.144,0,0,1-.232.682,1.121,1.121,0,0,1-1.57.21l-9.088-6.971h-6a1.13,1.13,0,0,1-1.128-1.124V136.985a1.127,1.127,0,0,1,1.128-1.12Zm10.9,2.854V147.8a5.266,5.266,0,0,0,1.577-1.341,5.175,5.175,0,0,0,0-6.4A5.377,5.377,0,0,0,124.681,138.72Z" transform="translate(-106.652 -128.658)" fill="#000"/>
</svg>
