<svg xmlns="http://www.w3.org/2000/svg" width="23.793" height="23.796" viewBox="0 0 23.793 23.796">
  <path id="Path_1984" data-name="Path 1984" d="M188.863,322.077h4.95a.919.919,0,0,1,.919.916v7.294a.921.921,0,0,1-.919.916h-4.95a.921.921,0,0,1-.919-.916v-7.294a.919.919,0,0,1,.919-.916ZM192.9,323.9h-3.122v5.466H192.9V323.9Zm4.468-16.5h4.953a.918.918,0,0,1,.916.916v21.965a.918.918,0,0,1-.916.916h-4.953a.918.918,0,0,1-.916-.916V308.322a.918.918,0,0,1,.916-.916Zm4.038,1.831h-3.122v20.134H201.4V309.237Zm4.468,3.058h4.953a.916.916,0,0,1,.913.919v17.073a.916.916,0,0,1-.913.916h-4.953a.914.914,0,0,1-.912-.916V313.214a.914.914,0,0,1,.912-.919Zm4.041,1.831H206.79v15.244h3.122Z" transform="translate(-187.944 -307.406)" fill="#000"/>
</svg>
