<svg xmlns="http://www.w3.org/2000/svg" width="24.08" height="29.059" viewBox="0 0 24.08 29.059">
  <path id="Path_143" data-name="Path 143" d="M320.076,265.936l-.057-.065a4.434,4.434,0,0,1-1.27-1.951l0,0c-.344-1.438-.562-2.823-.761-4.115-.5-3.239-.994-6.613-4-8.548a7.443,7.443,0,0,0-1.958-.884l.008-.008a3.27,3.27,0,0,0-2.318-5.588,3.236,3.236,0,0,0-2.31.956,3.264,3.264,0,0,0,0,4.632l.088.084a7.613,7.613,0,0,0-1.7.807c-2.165,1.4-3.079,3.587-3.564,5.993-.138.665-.253,1.373-.367,2.111l-.073.455c-.2,1.285-.417,2.673-.757,4.1a3.51,3.51,0,0,1-1.346,1.8,4.393,4.393,0,0,0-2,3.695v.031a1.137,1.137,0,0,0,1.136,1.14h7.217a3.715,3.715,0,0,0,7.374,0h7.187l.027,0a1.137,1.137,0,0,0,1.14-1.136A4.718,4.718,0,0,0,320.076,265.936Zm-11.707-19.242a1.9,1.9,0,1,1-.562,1.35A1.9,1.9,0,0,1,308.369,246.694Zm2.375,24.443a1.454,1.454,0,0,1-2.054,0,1.5,1.5,0,0,1-.325-.555l2.7,0A1.48,1.48,0,0,1,310.744,271.137ZM300.3,268.311a4.692,4.692,0,0,1,.853-.868,5.292,5.292,0,0,0,2.077-3c.367-1.514.589-2.949.8-4.284l.073-.447c.107-.7.218-1.373.352-2.019a6.421,6.421,0,0,1,2.566-4.521,5.372,5.372,0,0,1,5.737-.008c2.337,1.511,2.6,4.49,2.987,6.984.206,1.342.428,2.777.8,4.295l0,0a6.169,6.169,0,0,0,1.832,2.979l.061.065a5.919,5.919,0,0,1,.688.819Z" transform="translate(-297.679 -244.774)" fill="#000"/>
</svg>
