<svg xmlns="http://www.w3.org/2000/svg" width="124.271" height="117.351" viewBox="0 0 124.271 117.351">
  <path id="Path_125" data-name="Path 125" d="M270.952,221.174l-.562-2.57a3.739,3.739,0,0,0-.758.32,4.851,4.851,0,0,1-2.663.554l-.443.014-.291-.341c-2.822-3.314-2.759-3.506-2.271-4.987v0a8.159,8.159,0,0,0,.427-2.85,17.316,17.316,0,0,0-1.623-1.352,3.281,3.281,0,0,1-1.344-1.481c-.281-.715-.246-1.611-.084-3.551-1.7.92-2.24,2.218-2.918,3.842a26.9,26.9,0,0,1-1.129,2.45l-.261.489-.556,0a4.819,4.819,0,0,1-2.9-.685,5,5,0,0,0-3.559-.587c-.441.066-.949.142-1.653.188-4.969.324-5.337.813-5.817,1.45a4.648,4.648,0,0,1-1.433,1.342,5.285,5.285,0,0,1-3.449.847,3.681,3.681,0,0,1-1.489-.539,3.59,3.59,0,0,1-1.133-1.156,5.535,5.535,0,0,1-.594-3.7c.1-.728.208-1.352.312-1.951.352-2.028.654-3.764-.009-5.553h-.375a9.835,9.835,0,0,1-1.382,1.052c-.279.184-.571.376-.929.663l-.076.061c-2.364,1.89-3.23,2.583-4.033,2.813a3.022,3.022,0,0,1-1.559-.018,12.225,12.225,0,0,0-2.735-.211c-.344,2.042.083,2.347.813,2.868A9.068,9.068,0,0,1,226.2,210.1l.683.781-.85.593a6.915,6.915,0,0,1-1.653.866,7.275,7.275,0,0,0-2.418,1.538c-.011.01-.026.029-.064.068a2.791,2.791,0,0,1-.227.218,7.735,7.735,0,0,1-1.512.981,4.957,4.957,0,0,1-3.689.364,5.976,5.976,0,0,1-2.858-2.013,8.73,8.73,0,0,1-.85-1.257l-.563-.012c-1.919-.044-3.593-.082-4.481.986a4.065,4.065,0,0,0-.825,1.92,5.241,5.241,0,0,0,.138,2.347c1.45,4.836,1.168,5.367.407,6.8a11.227,11.227,0,0,0-1.252,3.932c-.876,5.2-2.428,5.084-4.765,4.9a5.684,5.684,0,0,0-4.1.914,11.759,11.759,0,0,0-3.538,4.45,30.031,30.031,0,0,1-1.878,3.063v1.407c5.686,6.13,6.5,5.937,8.969,5.352a22.836,22.836,0,0,1,2.728-.514l1.325-.159-.314,1.3a11.284,11.284,0,0,1-.6,1.8,2.091,2.091,0,0,0-.233.952c2.645.634,5.078-1.187,7.608-3.079,2.682-2.007,5.461-4.085,8.964-3.944l.857.035.343,8.645a18.368,18.368,0,0,0,6.928,1.621c4.658.39,7.436.625,7.326,10.448,8.075.957,9.32,2.774,8.942,6.361-.082.778-.242,1.578-.42,2.473a27.645,27.645,0,0,0-.687,7.925c.421.194.4.2.411.2.563-.255.738-.334,3.611,1.746.192.139.325.242.417.317.113.054.275.137.506.264a11.735,11.735,0,0,0,1.087.511c.237.1.476.2.661.289l.59.275-.056.648a5.424,5.424,0,0,1-.7,2.594,2.651,2.651,0,0,0-.346,1.354,6.131,6.131,0,0,0,1.708.662,3.5,3.5,0,0,1,2.712,2.116l.037.069c2.528,5.5-1.138,8.862-3.647,11.161a7.4,7.4,0,0,0-1.549,1.65c-.637,1.583.181,2.144,2.01,3.4a35.824,35.824,0,0,1,6.15,5.117l1.293.257a16.86,16.86,0,0,1,1.57-1.8,16.036,16.036,0,0,0,1.63-1.887,9.782,9.782,0,0,0,1.577-3.4c.16-.527.342-1.122.583-1.812a5.114,5.114,0,0,1,2.748-3.4c.964-.523,1.755-.954,1.589-7.224-.222-8.366,6.815-8.693,15.109-9.078l.985-.046a15.962,15.962,0,0,0,3.339-.286c.079-.033.17-.158.32-.362a10.293,10.293,0,0,1,1.4-1.582c1.345-1.263,2.253-1.987,2.892-2.5a4.424,4.424,0,0,0,1.093-1.034,10.727,10.727,0,0,0,.672-2.573c.172-.839.391-1.913.7-3.289a38.448,38.448,0,0,1,1.283-4.49c.675-1.98,1.128-3.306,1.189-8.431.048-3.934.342-4.058,1.733-4.646a5.554,5.554,0,0,0,1.393-.8,3.769,3.769,0,0,0,1.144-1.484,5.367,5.367,0,0,1,2.6-2.705c.892-.5,1.479-.774,1.883-.964.312-.148.431-.177.446-.2.029-.038-.012-.08.019-.306a18.852,18.852,0,0,1,.449-2.3c.695-2.725,2.039-3.322,3.822-4.114.2-.088.406-.18.633-.287l1.118-6.2v-2.325a8.717,8.717,0,0,0-4.1-1.107c-1.738-.163-3.3-.311-4.505-1.678-1.173-1.334-1.12-2.055-1.079-2.616.008-.111.013-.184-1.118-.793-6.112-3.289-7.1-3.007-8.068-2.73-.927.265-1.84.526-4.5-.551a9.525,9.525,0,0,1-2.091-1.219,4.475,4.475,0,0,0-1.313-.746,1.172,1.172,0,0,0-1.278.292c-.97.826-1.815,1.545-4.734-.845-.5-.411-.987-.822-1.38-1.155a6.022,6.022,0,0,0-1.246-.961,2.577,2.577,0,0,0-.611.117,21.973,21.973,0,0,1-4.52.622l-.788.041ZM272,217.28,272.6,220a18.967,18.967,0,0,0,3.393-.521,3.031,3.031,0,0,1,1.388-.139c.628.118,1.057.481,2.1,1.368.329.279.734.621,1.359,1.133,1.724,1.412,2.019,1.162,2.357.874a2.73,2.73,0,0,1,2.986-.67,5.914,5.914,0,0,1,1.887,1.029,7.9,7.9,0,0,0,1.706,1c2.064.836,2.674.662,3.292.486,1.323-.378,2.677-.765,9.457,2.883,2.193,1.18,2.153,1.728,2.092,2.559-.016.222-.037.507.621,1.256.721.819,1.932.933,3.277,1.06a9.605,9.605,0,0,1,5.426,1.743l.367.282v3.379l-1.322,7.325-.412.207c-.36.181-.756.357-1.13.524-1.308.581-2.293,1.018-2.767,2.878a16.883,16.883,0,0,0-.412,2.09,2.191,2.191,0,0,1-.368,1.171,2.618,2.618,0,0,1-1.144.765c-.392.186-.963.456-1.775.906a3.8,3.8,0,0,0-1.843,1.913,5.362,5.362,0,0,1-1.659,2.123,7.245,7.245,0,0,1-1.815,1.043c-.467.2-.566.239-.6,2.959-.066,5.433-.554,6.865-1.284,9.005a37.066,37.066,0,0,0-1.232,4.3c-.312,1.389-.526,2.436-.693,3.253a10.91,10.91,0,0,1-.876,3.118,5.412,5.412,0,0,1-1.551,1.572c-.617.492-1.494,1.192-2.775,2.4a8.6,8.6,0,0,0-1.171,1.327,2.357,2.357,0,0,1-1.091.973c-.641.273-1.579.318-3.978.431l-.993.046c-7.309.34-13.509.628-13.336,7.181.2,7.4-1.044,8.074-2.556,8.9a3.536,3.536,0,0,0-1.882,2.377c-.244.7-.413,1.251-.562,1.739a11.272,11.272,0,0,1-1.839,3.939,17.524,17.524,0,0,1-1.8,2.1,13.582,13.582,0,0,0-1.721,2.048l-.345.524-3.075-.611-.2-.218a34.029,34.029,0,0,0-6.052-5.074c-2.679-1.839-3.877-2.662-2.685-5.623A7.711,7.711,0,0,1,249.382,303c2.1-1.925,5.166-4.735,3.222-9a1.993,1.993,0,0,0-1.531-1.175,7.743,7.743,0,0,1-2.715-1.193l-.422-.283.011-.506a4.822,4.822,0,0,1,.6-2.739,3.017,3.017,0,0,0,.388-1.2,12.854,12.854,0,0,1-1.239-.588c-.393-.215-.369-.208-.372-.209-.088-.025-.173-.057-.259-.087-.071-.071-.138-.135-.2-.211,0-.005.029.034-.292-.2-2-1.447-1.573-1.64-1.757-1.557-.291.132-.732.331-2.424-.417l-.494-.219-.054-.541a28.55,28.55,0,0,1,.661-9c.174-.876.331-1.659.4-2.3.257-2.437-.875-3.656-8.133-4.421l-.855-.09.023-.855c.235-8.911-1.923-9.092-5.61-9.4a19.443,19.443,0,0,1-8.112-2.07l-.473-.25-.316-7.956c-2.5.24-4.749,1.92-6.925,3.549-3.1,2.319-6.075,4.545-9.849,3.2l-.46-.165-.125-.479a3.327,3.327,0,0,1,.232-2.616l.062-.151c-.383.079-.732.162-1.056.238-3.3.782-4.361,1.033-11.013-6.172l-.247-.268v-2.742l.185-.248a26.445,26.445,0,0,0,1.933-3.1,13.223,13.223,0,0,1,4.112-5.082,7.263,7.263,0,0,1,5.282-1.234c1.323.1,2.2.169,2.8-3.356a12.875,12.875,0,0,1,1.448-4.5c.5-.933.681-1.28-.552-5.393a7.108,7.108,0,0,1-.189-3.183,5.921,5.921,0,0,1,1.233-2.8c1.461-1.756,3.548-1.709,5.943-1.655.364.008.737.017,1.1.018l.579,0,.253.521a7.173,7.173,0,0,0,.887,1.4,4.145,4.145,0,0,0,1.949,1.41,3.169,3.169,0,0,0,2.352-.255,5.9,5.9,0,0,0,1.142-.748c.016-.014.042-.04.067-.066a2.712,2.712,0,0,1,.2-.192,8.835,8.835,0,0,1,2.942-1.858c.082-.032.163-.064.246-.1-.194-.154-.379-.286-.551-.408-1.451-1.035-2.236-1.6-1.419-5.469l.148-.7.714-.038a14.874,14.874,0,0,1,3.882.213,1.784,1.784,0,0,0,.723.055c.461-.132,1.245-.759,3.386-2.472l.077-.061a12.9,12.9,0,0,1,1.067-.764,8.191,8.191,0,0,0,1.388-1.1l.274-.266h2.307l.253.531c1.206,2.524.835,4.658.394,7.2-.108.622-.221,1.271-.3,1.886a3.756,3.756,0,0,0,.34,2.478,1.745,1.745,0,0,0,.545.567,1.825,1.825,0,0,0,.74.262,3.462,3.462,0,0,0,2.228-.592,3.023,3.023,0,0,0,.924-.87c.772-1.025,1.364-1.812,7.184-2.192.605-.039,1.084-.111,1.5-.173a6.309,6.309,0,0,1,2.9.07,6.444,6.444,0,0,1,1.832.735,2.9,2.9,0,0,0,1.444.436c.3-.616.553-1.217.79-1.783,1.02-2.443,1.788-4.283,5.4-5.462l1.333-.435-.175,2.04c-.195,2.266-.275,3.194-.115,3.6.071.181.315.364.727.674a18.92,18.92,0,0,1,2.085,1.775l.268.264.008.38a10.193,10.193,0,0,1-.511,3.848h0c-.192.583-.221.687,1.622,2.864a2.749,2.749,0,0,0,1.409-.317,6.628,6.628,0,0,1,2.157-.724l.892-.177Z" transform="translate(-190.041 -199.504)" fill="#000"/>
</svg>
