<svg xmlns="http://www.w3.org/2000/svg" width="26.484" height="26.488" viewBox="0 0 26.484 26.488">
  <path id="Path_1980" data-name="Path 1980" d="M369.2,241.632a13.192,13.192,0,0,1,9.364,3.88l.051.058a13.264,13.264,0,0,1,3.18,13.407,13.54,13.54,0,0,1-1.7,3.425v4.7a1.022,1.022,0,0,1-1.019,1.019H369.2a13.2,13.2,0,0,1-9.36-3.88h0a13.235,13.235,0,0,1,0-18.728h0a13.187,13.187,0,0,1,9.364-3.88Zm-6.6,10.594H375.8a.61.61,0,0,0,0-1.22h-13.21a.61.61,0,1,0,0,1.22Zm0,3.262H375.8a.612.612,0,0,0,0-1.223h-13.21a.612.612,0,1,0,0,1.223Zm0,3.258H375.8a.61.61,0,0,0,0-1.22h-13.21a.61.61,0,1,0,0,1.22Zm14.528-11.793a11.2,11.2,0,0,0-15.847,0l0,0,0,0a11.213,11.213,0,0,0,.007,15.846h0a11.184,11.184,0,0,0,7.927,3.282h8.854v-4h0a1,1,0,0,1,.2-.6,10.988,10.988,0,0,0,1.6-3.129A11.218,11.218,0,0,0,377.17,247Z" transform="translate(-355.955 -241.632)" fill="#000" />
</svg>
