<svg xmlns="http://www.w3.org/2000/svg" width="14.811" height="14.809" viewBox="0 0 14.811 14.809">
  <path id="Path_144" data-name="Path 144" d="M387.533,119.8a7.384,7.384,0,0,1,5.236,2.168l.029.033a7.4,7.4,0,0,1-.029,10.44l-.033.029a7.4,7.4,0,0,1-10.436-.029h0a7.4,7.4,0,0,1,0-10.47h0v0h0a7.377,7.377,0,0,1,5.23-2.168Zm3.232,6.834h-2.66v-4.532a.571.571,0,0,0-1.143,0v5.1a.572.572,0,0,0,.572.57h3.23a.57.57,0,1,0,0-1.141Zm1.2-3.86a6.261,6.261,0,0,0-8.855,0l-.006,0a6.267,6.267,0,0,0,.006,8.861h0l0,0a6.268,6.268,0,0,0,8.834.025l.021-.027a6.265,6.265,0,0,0,.029-8.836Z" transform="translate(-380.129 -119.803)" fill="#000"/>
</svg>
