<svg xmlns="http://www.w3.org/2000/svg" width="21.882" height="25" viewBox="0 0 21.882 25">
  <path id="Path_138" data-name="Path 138" d="M356.815,725.372H368.2a.94.94,0,0,1,.682.285l6.959,6.949a.97.97,0,0,1,.281.678v14.509a2.564,2.564,0,0,1-.756,1.816l-.006.007-.026.023a2.568,2.568,0,0,1-1.787.733H356.815a2.569,2.569,0,0,1-1.812-.756h0a2.564,2.564,0,0,1-.759-1.822V727.947a2.582,2.582,0,0,1,2.575-2.575Zm17.385,8.491h-4.387a2.195,2.195,0,0,1-1.544-.64l-.029-.036a2.184,2.184,0,0,1-.614-1.515v-4.378h-10.81a.659.659,0,0,0-.459.191.647.647,0,0,0-.191.462v19.847a.653.653,0,0,0,.191.462h0a.661.661,0,0,0,.462.194h16.732a.665.665,0,0,0,.459-.191l0,0a.681.681,0,0,0,.191-.462V733.863Zm-.979-1.15-4.442-4.442v3.4a1.033,1.033,0,0,0,.278.707l.026.026a1.052,1.052,0,0,0,.73.307Z" transform="translate(-354.24 -725.372)" fill="#000"/>
</svg>
