<svg xmlns="http://www.w3.org/2000/svg" width="21.697" height="24.798" viewBox="0 0 21.697 24.798">
  <path id="Path_1997" data-name="Path 1997" d="M536.889,504.4H525.8a.571.571,0,1,0,0,1.142h11.09a.571.571,0,1,0,0-1.142Zm-11.663-7.484a.575.575,0,0,0,.573.576h11.09a.572.572,0,0,0,0-1.145H525.8A.573.573,0,0,0,525.227,496.914Zm16.691-3.171-6.9-6.9a.955.955,0,0,0-.674-.283H523.048a2.568,2.568,0,0,0-2.554,2.557v19.69a2.554,2.554,0,0,0,.75,1.8h.006a2.54,2.54,0,0,0,1.8.75H539.64a2.559,2.559,0,0,0,1.778-.728l.022-.022.006,0a2.55,2.55,0,0,0,.744-1.8V494.421A.965.965,0,0,0,541.917,493.743Zm-7-4.3,4.4,4.4h-3.378a1.05,1.05,0,0,1-.725-.3l-.029-.025a1.036,1.036,0,0,1-.273-.7Zm5.375,19.369a.657.657,0,0,1-.191.452l0,0a.649.649,0,0,1-.455.188H523.048a.671.671,0,0,1-.458-.188v0a.653.653,0,0,1-.188-.452v-19.69a.646.646,0,0,1,.646-.646h10.724v4.341a2.185,2.185,0,0,0,.6,1.5l.032.035a2.18,2.18,0,0,0,1.536.636h4.348Zm-3.4-8.441H525.8a.574.574,0,0,0,0,1.148h11.09a.574.574,0,0,0,0-1.148Z" transform="translate(-520.494 -486.565)" fill="#000"/>
</svg>
