<svg xmlns="http://www.w3.org/2000/svg" width="59.065" height="51.088" viewBox="0 0 59.065 51.088">
  <path id="Path_1974" data-name="Path 1974" d="M517.69,743.607h1.717V728.685a2.269,2.269,0,0,1,2.275-2.267H538.7a2.244,2.244,0,0,1,1.748.824l7.87,8.488h19.915A2.258,2.258,0,0,1,570.5,738v5.61h1.717a2.279,2.279,0,0,1,2.275,2.267,2.011,2.011,0,0,1-.03.374l-3.626,28.975a2.968,2.968,0,0,1-2.6,2.283H521.682a2.217,2.217,0,0,1-1.565-.634,2.27,2.27,0,0,1-1.053-1.71l-3.626-29.013a2.273,2.273,0,0,1,1.985-2.526l.267-.015Zm6.259,0h42v-3.343H547.328a2.281,2.281,0,0,1-1.656-.725l-7.962-8.58H523.949v12.648Zm45.692,4.542H520.27l3.068,24.533h43.233Z" transform="translate(-515.422 -726.418)" fill="#000"/>
</svg>
