<svg width="14" height="15" viewBox="0 0 14 15" fill="none" xmlns="http://www.w3.org/2000/svg">
<path d="M11.394 7.5865L11.5431 7.5L11.394 7.4135L1.71741 1.79994L1.56723 1.71282V1.88644V13.1136V13.2872L1.71741 13.2001L11.394 7.5865ZM12.6141 6.42611L12.6146 6.42639C12.8037 6.53467 12.9609 6.69098 13.0702 6.8795C13.1795 7.06803 13.237 7.28208 13.237 7.5C13.237 7.71792 13.1795 7.93197 13.0702 8.1205C12.9609 8.30902 12.8037 8.46533 12.6146 8.57361L12.6141 8.5739L2.00551 14.7293L2.00547 14.7293C1.19793 15.1983 0.1 14.6588 0.1 13.6554V1.34459C0.1 0.341226 1.19793 -0.19832 2.00547 0.270677L2.00551 0.270697L12.6141 6.42611Z" fill="#016F33" stroke="#F2F2F2" stroke-width="0.2"/>
</svg>
