<?xml version="1.0" encoding="utf-8"?>
<!-- Generator: Adobe Illustrator 24.0.3, SVG Export Plug-In . SVG Version: 6.00 Build 0)  -->
<svg version="1.1" id="Layer_1" xmlns="http://www.w3.org/2000/svg" xmlns:xlink="http://www.w3.org/1999/xlink" x="0px" y="0px"
	 viewBox="0 0 70.3 70" style="enable-background:new 0 0 70.3 70;" xml:space="preserve">
<path id="Path_1973" d="M8.6,12.1h53c1.2,0,2.2,1,2.2,2.2v35.1c0,1.2-1,2.2-2.2,2.2h-53c-1.2,0-2.2-1-2.2-2.2V14.3
	C6.4,13.1,7.4,12.1,8.6,12.1z M2.2,57.9c-1.2,0-2.2-1-2.2-2.2c0-1.2,1-2.2,2.2-2.2h65.9c1.2,0,2.2,1,2.2,2.2c0,1.2-1,2.2-2.2,2.2
	H2.2z M59.4,16.5H10.8v30.6h48.6V16.5z"/>
</svg>
