<svg xmlns="http://www.w3.org/2000/svg" width="28.113" height="30.196" viewBox="0 0 28.113 30.196">
  <path id="Path_1982" data-name="Path 1982" d="M463.126,123.475h11.389l.761-2.862a.721.721,0,0,1,.064-.173.65.65,0,0,1,.322-.318.678.678,0,0,1,.318-.08.659.659,0,0,1,.322.08.668.668,0,0,1,.322.318.6.6,0,0,1,.064.173l.765,2.862h11.389a1.193,1.193,0,0,1,1.2,1.2v16.39a1.2,1.2,0,0,1-1.2,1.2h-6.357l1.9,7.074a.726.726,0,0,1-.511.878.719.719,0,0,1-.882-.507L481,142.26h-4.3v4.191a.719.719,0,1,1-1.437,0V142.26h-4.3l-2,7.444a.719.719,0,0,1-1.389-.37l1.9-7.074h-6.353a1.2,1.2,0,0,1-1.2-1.2v-16.39a1.194,1.194,0,0,1,1.2-1.2Zm5.986,15.411h13.74a.719.719,0,1,0,0-1.437h-13.74a.719.719,0,1,0,0,1.437Zm18.531-13.02H464.321v13.994h23.322Z" transform="translate(-461.926 -120.041)" fill="#000"/>
</svg>
